<?xml version="1.0" encoding="utf-8"?>
<svg viewBox="25 25 450 450" xmlns="http://www.w3.org/2000/svg" xmlns:xlink="http://www.w3.org/1999/xlink" xmlns:bx="https://boxy-svg.com">
  <defs>
    <bx:grid x="0" y="0" width="12.5" height="12.5"/>
    <linearGradient id="gradient-1" bx:pinned="true">
      <stop offset="0" style="stop-color: rgb(200, 223, 138);"/>
      <stop offset="0.415" style="stop-color: rgb(223, 138, 138);"/>
      <stop offset="0.766" style="stop-color: rgb(0, 136, 255);"/>
      <stop offset="1" style="stop-color: rgb(81, 174, 255);"/>
    </linearGradient>
    <radialGradient id="gradient-1-0" gradientUnits="userSpaceOnUse" cx="50" cy="311" r="87.095" spreadMethod="pad" gradientTransform="matrix(2.127665, 0, 0, 2.689045, -56.383266, -498.792899)" xlink:href="#gradient-1"/>
    <bx:guide x="78.812" y="374.842" angle="0"/>
  </defs>
  <rect style="stroke-width: 8px; paint-order: stroke; fill: rgb(51, 51, 51);" x="50" y="112.5" width="400" height="287.5" rx="32" ry="32"/>
  <path d="M 78.817 374.841 L 78.817 399.844 C 62.638 398.246 50 384.599 50 368 L 50 337.5 Z" style="fill: rgba(200, 223, 138, 0.263);"/>
  <rect style="fill: rgb(68, 68, 68);" x="50" y="112.5" width="400" height="262.5" rx="32" ry="32"/>
  <rect style="fill: rgb(0, 108, 203);" x="250" y="137.5" width="125" height="87.189" rx="16" ry="16"/>
  <rect style="fill: rgb(0, 136, 255);" x="250" y="138.122" width="125" height="74.378" rx="16" ry="16"/>
  <rect style="fill: rgb(190, 117, 117);" x="350" y="237.811" width="62.5" height="49.689" rx="16" ry="16"/>
  <rect style="fill: rgb(223, 138, 138);" x="350" y="237.5" width="62.5" height="37.5" rx="16" ry="16"/>
  <rect style="fill: rgb(159, 177, 109);" x="350" y="300.311" width="62.5" height="49.689" rx="16" ry="16"/>
  <rect style="fill: rgb(200, 223, 138);" x="350" y="300" width="62.5" height="37.5" rx="16" ry="16"/>
  <path style="fill: none; stroke-width: 16px; stroke: rgb(136, 136, 136);" d="M 287.5 225 L 287.5 237.5 C 287.5 250 300 262.5 312.5 262.5 L 350 262.5"/>
  <path style="fill: none; stroke-width: 16px; stroke: rgb(136, 136, 136);" d="M 287.5 225 L 287.5 300 C 287.5 312.5 300 325 312.5 325 L 350 325"/>
  <path style="fill: none; stroke-width: 16px; stroke: rgb(136, 136, 136);" d="M 287.5 225 L 287.5 375"/>
  <path style="fill: none; stroke-width: 16px; stroke: rgb(102, 102, 102);" d="M 287.5 375 L 287.5 400"/>
  <path d="M 50 343 L 50 293.383 C 50.109 293.752 50.217 294.121 50.325 294.49 C 51.171 297.378 53.212 299.498 56.505 299.628 C 59.913 299.766 62.229 297.798 63.242 294.823 C 64.313 291.697 65.102 288.368 65.362 285.076 C 66.346 272.81 68.756 260.913 73.72 249.616 C 74.82 247.12 74.299 245.622 71.926 244.348 C 68.517 242.517 66.151 239.644 64.689 236.055 C 63.032 232.002 63.061 228.493 65.058 227.27 C 68.279 225.301 71.332 226.749 73.749 228.76 C 76.405 230.975 78.526 233.826 80.827 236.344 C 80.783 236.417 81.037 236.12 81.181 235.78 C 86.956 221.546 80.935 206.711 71.68 196.283 C 70.109 194.51 68.329 194.9 66.788 196.435 C 63.987 199.213 60.977 201.84 58.538 204.916 C 55.452 208.815 52.815 213.068 50 217.188 L 50 187.964 C 50.149 186.92 50.289 185.877 50.426 184.834 C 50.677 182.927 50.58 181.728 50 180.992 L 50 170.047 C 50.04 170.074 50.081 170.102 50.122 170.13 C 50.605 167.975 50.551 165.9 50 164.001 L 50 144.5 C 50 141.475 50.42 138.549 51.204 135.775 C 52.448 137.976 53.421 140.366 54.153 142.92 C 54.233 143.198 54.317 143.472 54.408 143.743 C 57.794 139.85 61.035 135.849 64.617 132.166 C 66.071 130.676 68.184 129.684 70.16 128.874 C 74.994 126.913 78.431 128.823 79.64 133.976 C 81.029 139.895 79.901 145.597 77.556 151.003 C 74.408 158.269 69.299 163.747 61.577 166.244 C 58.618 167.199 57.518 168.95 57.655 171.924 C 57.8 175.079 57.525 178.263 57.778 181.404 C 58.147 186.007 60.999 187.866 65.094 185.949 C 74.495 181.542 82.035 175.202 85.661 165.013 C 86.942 161.417 86.898 157.958 85.929 154.296 C 83.446 144.946 86.059 136.986 93.006 130.379 C 93.643 129.771 94.359 129.221 95.105 128.751 C 99.418 126.051 102.457 126.992 104.049 131.805 C 106.705 139.837 105.525 147.45 100.481 154.216 C 98.629 156.706 95.937 158.558 93.78 160.845 C 92.666 162.025 91.544 163.414 91.074 164.912 C 90.719 166.019 90.987 168.053 91.747 168.588 C 92.528 169.138 94.475 168.769 95.503 168.132 C 99.302 165.788 101.914 162.357 103.521 158.175 C 104.86 154.687 106.017 151.119 107.609 147.754 C 108.601 145.663 110.092 143.723 111.691 142.037 C 112.407 141.277 114.231 140.706 115.034 141.104 C 115.997 141.581 117.06 143.275 116.923 144.28 C 116.322 148.731 115.338 153.138 114.419 157.545 C 114.224 158.464 113.732 159.325 113.073 160.961 C 115.577 158.84 117.364 157.096 119.369 155.664 C 125.296 151.423 131.903 150.62 138.821 152.4 C 143.105 153.5 144.147 156.199 141.781 159.969 C 136.722 168.031 129.102 171.953 119.832 171.505 C 110.801 171.07 103.391 173.82 97.457 179.79 C 98.853 183.524 100.243 187.23 101.495 190.587 C 103.723 188.207 106.104 185.044 109.086 182.613 C 115.012 177.779 121.837 175.087 129.638 176.592 C 133.965 177.424 135.318 180.167 133.712 184.277 C 129.768 194.358 122.242 200.263 111.836 202.709 C 110.113 203.114 108.369 203.432 106.683 203.968 C 103.528 204.967 100.973 206.841 99.823 210.018 C 94.822 223.861 89.923 237.748 85.248 250.897 C 88.693 249.703 92.731 248.031 96.914 246.982 C 99.005 246.461 101.444 246.758 103.608 247.235 C 107.009 247.988 107.971 250.253 106.213 253.206 C 102.5 259.444 97.015 263.091 89.713 263.786 C 88.244 263.923 86.754 263.829 85.27 263.829 C 81.304 263.822 79.806 264.719 79.314 268.439 C 78.815 272.223 78.547 276.124 78.851 279.916 C 79.199 284.236 81.666 285.843 85.596 284.091 C 90.502 281.906 95.365 279.373 99.707 276.24 C 107.848 270.371 114.021 262.715 117.784 253.285 C 119.6 248.741 118.949 247.069 114.332 245.426 C 107.79 243.089 102.059 239.652 99.222 233.081 C 97.826 229.846 97.203 226.134 96.921 222.588 C 96.653 219.23 98.701 217.616 102.073 217.551 C 111.018 217.392 121.272 225.779 123.53 235.085 C 123.682 235.722 123.863 236.359 124.138 237.401 L 124.145 237.459 C 127.192 232.154 130.021 227.234 133.075 221.922 C 130.347 221.683 128.306 221.553 126.273 221.314 C 120.317 220.598 116.112 217.29 113.225 212.21 C 111.003 208.303 112.205 205.842 116.626 204.93 C 121.931 203.838 128.625 207.109 131.953 212.42 C 132.424 213.173 132.851 213.954 133.321 214.707 C 134.631 216.813 136.455 217.298 138.148 215.59 C 142.54 211.19 145.79 206.016 147.143 199.894 C 147.396 198.758 146.448 197.115 145.631 196.022 C 138.785 186.955 137.801 177.026 143.09 167.836 C 144.711 165.021 146.441 161.793 150.24 161.996 C 153.895 162.191 155.559 165.433 156.522 168.378 C 158.02 172.981 158.852 177.808 159.887 182.222 C 162.094 180.941 164.844 179.096 167.811 177.714 C 169.728 176.823 171.936 176.302 174.049 176.158 C 179.737 175.774 181.864 178.495 180.229 184.067 C 177.24 194.256 170.756 200.661 159.973 202.231 C 157.086 202.651 154.22 203.266 153.099 206.472 C 152.809 207.289 152.693 208.751 153.135 209.106 C 153.844 209.663 155.262 209.945 156.073 209.605 C 157.578 208.976 158.975 207.941 160.212 206.848 C 166.95 200.921 174.454 198.157 183.384 201.008 C 184.035 201.218 184.694 201.45 185.302 201.768 C 188.913 203.628 189.586 206.204 187.038 209.403 C 182.508 215.083 176.574 218.39 169.272 218.723 C 165.944 218.875 162.542 218.636 159.25 218.079 C 151.101 216.69 144.921 219.968 140.811 226.517 C 136.23 233.812 132.496 241.642 128.038 249.913 C 130.947 249.551 132.901 248.958 134.761 249.182 C 136.57 249.399 139.038 249.993 139.812 251.266 C 140.565 252.511 140.095 255.167 139.212 256.629 C 136.028 261.875 131.403 265.537 125.288 266.781 C 122.235 267.404 120.281 268.815 118.732 271.558 C 113.088 281.551 104.107 288.209 95.018 294.751 C 88.223 299.65 81.304 304.426 74.864 309.767 C 68.286 315.223 63.416 321.997 62.236 330.847 C 61.151 339.003 65.934 342.968 73.655 340.103 C 81.999 337.005 88.063 330.948 93.52 324.204 C 99.577 316.707 104.244 308.356 107.971 299.527 C 112.784 288.137 120.085 278.975 130.007 271.521 C 140.521 263.619 146.557 252.851 147.36 239.543 C 147.548 236.431 146.81 233.276 146.6 230.135 C 146.463 228.08 146.137 225.764 148.612 224.788 C 150.928 223.876 153.034 224.867 154.423 226.655 C 156.326 229.101 157.853 231.829 159.583 234.492 C 163.165 228.645 168.498 224.57 175.641 223.29 C 178.485 222.776 181.777 221.821 183.898 224.679 C 185.953 227.451 184.093 230.186 182.761 232.646 C 179.216 239.174 173.426 242.315 166.219 243.06 C 159.105 243.798 155.769 249.211 158.302 256.064 C 159.156 258.373 160.777 259.277 163.186 258.705 C 171.147 256.817 177.146 251.99 181.017 245.108 C 184.064 239.695 185.757 233.522 188.254 227.783 C 190.237 223.217 192.35 218.68 194.803 214.36 C 195.512 213.115 197.625 212.666 199.094 211.856 C 199.934 213.412 201.439 214.931 201.504 216.516 C 201.924 225.714 199.312 234.029 193.363 241.193 C 192.618 242.09 191.909 243.031 191.496 243.559 C 196.055 242.85 200.824 241.873 205.644 241.439 C 208.422 241.186 211.802 241.229 213.17 244.29 C 214.581 247.431 211.874 249.609 210.072 251.686 C 204.08 258.59 196.164 261.079 187.299 260.985 C 182.421 260.934 177.609 261.072 173.166 263.351 C 171.639 264.133 170.242 265.182 168.744 266.137 C 171.733 269.64 178.058 270.313 181.676 267.766 C 186.633 264.278 192.032 261.622 198.139 262.273 C 202.336 262.722 206.606 264.068 210.449 265.855 C 214.617 267.787 214.834 270.921 211.382 274.062 C 204.746 280.111 196.938 282.68 188.16 280.104 C 182.581 278.469 177.081 277.861 171.291 277.868 C 166.023 277.868 160.719 276.855 155.487 275.979 C 148.648 274.836 142.562 276.131 137.279 280.726 C 131.447 285.806 130.897 291.198 135.579 298.094 C 138.662 291.755 143.054 286.841 149.857 284.54 C 150.964 284.164 152.151 283.911 153.309 283.845 C 156.362 283.679 158.02 285.09 158.041 288.151 C 158.092 296.249 154.17 302.248 147.635 306.626 C 145.616 307.979 143.235 308.783 141.05 309.89 C 140.391 310.223 139.298 310.708 139.291 311.135 C 139.226 314.268 139.016 317.496 139.675 320.513 C 139.921 321.642 142.323 322.959 143.807 323.046 C 150.414 323.415 156.514 321.736 161.609 317.271 C 164.366 314.854 165.415 311.714 165.676 308.081 C 166.211 300.591 169.092 294.158 174.931 289.244 C 175.684 288.614 176.495 288.028 177.356 287.572 C 180.837 285.741 183.232 286.769 184.368 290.503 C 186.582 297.805 183.34 306.822 176.907 311.149 C 175.358 312.191 173.354 312.799 172.218 314.159 C 171.009 315.607 170.575 317.705 169.801 319.515 C 171.422 320.166 173.043 321.382 174.664 321.382 C 188.442 321.396 197.958 312.423 200.144 298.405 C 200.838 293.962 202.923 289.685 204.768 285.51 C 205.238 284.453 207.236 283.57 208.531 283.57 C 209.291 283.57 210.572 285.394 210.724 286.516 C 211.201 290.105 211.266 293.745 211.484 297.24 C 214.168 296.603 217.128 295.677 220.167 295.279 C 221.427 295.113 223.569 295.757 223.981 296.647 C 224.488 297.732 224.003 299.737 223.236 300.873 C 220.124 305.505 215.941 308.79 210.391 310.194 C 209.03 310.541 207.807 311.46 205.861 312.459 C 210.065 312.712 213.351 312.56 216.462 313.233 C 218.38 313.653 220.84 314.977 221.535 316.562 C 222.107 317.872 220.913 320.557 219.712 321.953 C 213.756 328.871 205.904 330.833 197.206 329.349 C 189.195 327.981 181.517 328.495 174.099 331.918 C 173.477 332.208 172.862 332.519 172.276 332.881 C 172.073 333.004 171.979 333.286 171.538 333.923 C 177.645 331.361 183.485 330.695 189.463 332.627 C 196.229 334.813 201.07 339.234 204.073 345.588 C 206.382 350.48 204.681 353.555 199.312 353.932 C 195.635 354.192 191.916 353.765 188.117 353.65 C 188.022 354.634 188.044 356.204 187.704 357.702 C 187.031 360.669 184.708 361.718 182.479 359.591 C 179.838 357.065 177.356 354.077 175.749 350.82 C 173.636 346.543 172.239 342.093 167.109 340.276 C 160.726 338.011 154.314 337.208 147.693 338.872 C 147.548 338.909 147.447 339.162 146.991 339.741 C 148.46 340.189 149.755 340.588 151.058 340.978 C 159.619 343.569 164.467 349.662 166.667 357.999 C 167.731 362.03 165.437 364.295 161.305 363.701 C 152.636 362.449 147.013 357.138 142.967 349.792 C 142.54 349.018 142.2 348.193 141.831 347.39 C 139.378 342.013 138.155 341.116 132.25 342.259 C 111.532 346.275 93.773 355.582 80.581 372.443 C 79.963 373.232 79.373 374.032 78.811 374.843 C 62.635 373.243 50 359.597 50 343 Z M 50.31 217.971 C 51.982 216.198 53.538 214.302 55.34 212.688 C 59.059 209.352 63.445 207.384 68.51 207.608 C 72.838 207.803 74.495 210.705 72.497 214.533 C 71.463 216.516 70.211 218.579 68.539 219.99 C 64.183 223.666 59.703 227.255 54.963 230.41 C 53.06 231.674 51.413 233.067 50 234.58 L 50 217.765 Z M 122.256 298.326 C 121.923 298.608 121.482 298.861 121.207 299.238 C 116.192 305.924 114.839 313.472 116.286 321.541 C 116.822 324.53 119.246 325.847 122.112 326.122 C 125.223 326.425 128.031 325.789 129.681 322.749 C 132.851 316.895 128.255 301.604 122.264 298.326 Z M 78.779 189.198 C 83.027 194.705 87.058 199.923 90.835 204.807 C 89.901 198.115 88.043 190.867 91.31 182.925 C 85.739 183.96 82.085 186.897 78.779 189.198 Z M 54.529 144.068 C 54.546 144.091 54.558 144.099 54.529 144.068 Z" style="fill: url('#gradient-1-0');"/>
</svg>